<svg xmlns="http://www.w3.org/2000/svg" viewBox="0 0 100 100" preserveAspectRatio="none">
  <!-- Gold sparkle stars at corners -->
  <!-- Top-left star -->
  <polygon points="8,1 9.8,6.2 15,8 9.8,9.8 8,15 6.2,9.8 1,8 6.2,6.2" fill="#FFD700"/>
  <!-- Top-right star -->
  <polygon points="92,1 93.8,6.2 99,8 93.8,9.8 92,15 90.2,9.8 85,8 90.2,6.2" fill="#FFD700"/>
  <!-- Bottom-left star -->
  <polygon points="8,85 9.8,90.2 15,92 9.8,93.8 8,99 6.2,93.8 1,92 6.2,90.2" fill="#FFD700"/>
  <!-- Bottom-right star -->
  <polygon points="92,85 93.8,90.2 99,92 93.8,93.8 92,99 90.2,93.8 85,92 90.2,90.2" fill="#FFD700"/>
  <!-- Small accent stars -->
  <polygon points="50,1 51,3.8 53.8,4.8 51,5.8 50,8.6 49,5.8 46.2,4.8 49,3.8" fill="#FFD700" opacity="0.8"/>
  <polygon points="50,91.4 51,94.2 53.8,95.2 51,96.2 50,99 49,96.2 46.2,95.2 49,94.2" fill="#FFD700" opacity="0.8"/>
  <polygon points="1,50 3.8,51 4.8,53.8 5.8,51 8.6,50 5.8,49 4.8,46.2 3.8,49" fill="#FFD700" opacity="0.8"/>
  <polygon points="91.4,50 94.2,51 95.2,53.8 96.2,51 99,50 96.2,49 95.2,46.2 94.2,49" fill="#FFD700" opacity="0.8"/>
</svg>
